<svg id="Calque_1" data-name="Calque 1" xmlns="http://www.w3.org/2000/svg" viewBox="0 0 56 56"><defs><style>.cls-1{fill:#e1be0f;}.cls-2{fill:#d3d3d3;}.cls-3{fill:#fff;}</style></defs><title>fiche-synthese</title><g id="Ellipse_5" data-name="Ellipse 5"><path class="cls-1" d="M28,0A28,28,0,1,0,56,28,28,28,0,0,0,28,0Z"/></g><g id="Forme_41" data-name="Forme 41"><path class="cls-2" d="M24.44,17,18.5,23.29V43.16a2.76,2.76,0,0,0,2.74,2.77H37.5v-29H24.44Z"/></g><g id="Forme_41-2" data-name="Forme 41-2"><path class="cls-3" d="M20.44,13,14.5,19.29V39.16a2.76,2.76,0,0,0,2.74,2.77H33.5v-29H20.44Z"/></g><g id="Forme_42" data-name="Forme 42"><path class="cls-2" d="M20.9,13.09a.89.89,0,0,0-1,.25L14.69,19a1.12,1.12,0,0,0-.18,1.13,1.37,1.37,0,0,0,1,.85h4.23a1.89,1.89,0,0,0,1.79-2V14A1,1,0,0,0,20.9,13.09Z"/></g><g id="Rectangle_9" data-name="Rectangle 9"><rect class="cls-2" x="18.5" y="26" width="11" height="1"/></g><g id="Rectangle_9-2" data-name="Rectangle 9-2"><rect class="cls-2" x="18.5" y="29" width="11" height="1"/></g><g id="Rectangle_9-3" data-name="Rectangle 9-3"><rect class="cls-2" x="18.5" y="32" width="11" height="1"/></g></svg>