<svg id="Calque_1" data-name="Calque 1" xmlns="http://www.w3.org/2000/svg" viewBox="0 0 56 56"><defs><style>.cls-1{fill:#f64b3a;}.cls-2{fill:#fff;}.cls-2,.cls-3{fill-rule:evenodd;}.cls-3{fill:#d3d3d3;}</style></defs><title>Sans titre - 3</title><g id="Ellipse_5" data-name="Ellipse 5"><path class="cls-1" d="M28-.5a28,28,0,1,0,28,28A28,28,0,0,0,28-.5h0Z" transform="translate(0 0.5)"/></g><g id="Forme_47" data-name="Forme 47"><path class="cls-2" d="M31.83,17.29H17.29a4.06,4.06,0,0,0-4.09,4V35.67a4.06,4.06,0,0,0,4.09,4H31.83a4.06,4.06,0,0,0,4.09-4V21.32A4.06,4.06,0,0,0,31.83,17.29Z" transform="translate(0 0.5)"/></g><g id="Forme_48" data-name="Forme 48"><path class="cls-2" d="M44.24,20.78a2.1,2.1,0,0,0-2.17.2L38.2,23.86v8.58l3.87,2.87a2.09,2.09,0,0,0,1.25.42,2.12,2.12,0,0,0,.92-0.21,2,2,0,0,0,1.15-1.81V22.59A2,2,0,0,0,44.24,20.78Z" transform="translate(0 0.5)"/></g><g id="Forme_50" data-name="Forme 50"><path class="cls-3" d="M28.23,27.21L23,23.36a1.7,1.7,0,0,0-1.76-.16,1.62,1.62,0,0,0-.93,1.46v7.7a1.62,1.62,0,0,0,.93,1.46A1.7,1.7,0,0,0,23,33.66l5.19-3.85A1.61,1.61,0,0,0,28.23,27.21Z" transform="translate(0 0.5)"/></g></svg>