<svg id="Calque_1" data-name="Calque 1" xmlns="http://www.w3.org/2000/svg" viewBox="0 0 56 56"><defs><style>.cls-1{fill:#7e5085;}.cls-2{fill:#d3d3d3;}.cls-2,.cls-3{fill-rule:evenodd;}.cls-3{fill:#fff;}</style></defs><title>Sans titre - 3</title><g id="Ellipse_5" data-name="Ellipse 5"><path class="cls-1" d="M28,0A28,28,0,1,0,56,28,28,28,0,0,0,28,0h0Z"/></g><g id="Forme_45" data-name="Forme 45"><path class="cls-2" d="M27.93,46.25a1.63,1.63,0,1,0,1.65,1.63A1.64,1.64,0,0,0,27.93,46.25Zm6.47,1a3.63,3.63,0,0,0,.38-0.35,5.89,5.89,0,0,0,1.12-2.68,6.83,6.83,0,0,0-2.69,1.44,2.94,2.94,0,0,0-.87,2.17,0.27,0.27,0,0,0-.09.14c0,0.28,1,1.07,2.29,1.21a7.08,7.08,0,0,0,3-.64,6.85,6.85,0,0,0-2.79-1.26ZM39.29,45l-0.37.11a3.64,3.64,0,0,0,.24-0.46,5.87,5.87,0,0,0,.19-2.9A6.77,6.77,0,0,0,37.28,44a2.93,2.93,0,0,0-.12,2.33,0.27,0.27,0,0,0,0,.16c0.06,0.28,1.26.7,2.56,0.41a7,7,0,0,0,2.66-1.57A6.89,6.89,0,0,0,39.29,45Zm4-3.69a3.57,3.57,0,0,0,.08-0.51A5.88,5.88,0,0,0,42.64,38a6.7,6.7,0,0,0-1.25,2.76A2.93,2.93,0,0,0,42,43a0.27,0.27,0,0,0,0,.16c0.15,0.25,1.42.27,2.56-.42a7,7,0,0,0,2-2.33,6.89,6.89,0,0,0-3,.68Zm3-5a3.59,3.59,0,0,0-.07-0.51,5.92,5.92,0,0,0-1.57-2.46,6.67,6.67,0,0,0-.36,3,3,3,0,0,0,1.29,2,0.27,0.27,0,0,0,.06.15c0.21,0.19,1.43-.16,2.32-1.15a6.91,6.91,0,0,0,1.22-2.81A6.85,6.85,0,0,0,46.57,36C46.48,36.07,46.41,36.17,46.33,36.27Zm3.5-8.77A6.76,6.76,0,0,0,48,29.92c0,0.12-.07.25-0.1,0.37a3.6,3.6,0,0,0-.27-0.44,6,6,0,0,0-2.4-1.67A6.67,6.67,0,0,0,46,31.09,3,3,0,0,0,48,32.4a0.27,0.27,0,0,0,.11.11c0.27,0.1,1.26-.69,1.69-1.95A6.87,6.87,0,0,0,49.83,27.51Zm-5.7-4.35a6.72,6.72,0,0,0,1.67,2.54,3,3,0,0,0,2.26.68,0.28,0.28,0,0,0,.14.07c0.29,0,1-1,1-2.36a6.9,6.9,0,0,0-.88-2.94,6.71,6.71,0,0,0-1,2.85c0,0.13,0,.26,0,0.38A3.68,3.68,0,0,0,46.93,24,6,6,0,0,0,44.14,23.15ZM41.43,18a6.75,6.75,0,0,0,2,2.3,3,3,0,0,0,2.33.39,0.28,0.28,0,0,0,.15.06c0.29,0,.85-1.15.71-2.47a6.91,6.91,0,0,0-1.26-2.8,6.7,6.7,0,0,0-.66,3c0,0.13,0,.25.06,0.38a3.67,3.67,0,0,0-.43-0.29A6,6,0,0,0,41.43,18Zm-1.64-2.54a3,3,0,0,0,2.35-.23,0.28,0.28,0,0,0,.16,0c0.27-.1.52-1.33,0-2.57a7,7,0,0,0-2-2.37,6.68,6.68,0,0,0,.15,3c0,0.12.1,0.24,0.16,0.35a3.71,3.71,0,0,0-.49-0.17,6.05,6.05,0,0,0-2.93.24A6.8,6.8,0,0,0,39.79,15.43Zm-4.1-4.06c1.32,0.83,2.84.8,3,.5S38.31,10.19,37,9.36a7.84,7.84,0,0,0-3.53-.82A7.7,7.7,0,0,0,35.69,11.37ZM22.79,45.64a6.83,6.83,0,0,0-2.69-1.44,5.89,5.89,0,0,0,1.12,2.68,3.65,3.65,0,0,0,.38.35l-0.39,0a6.85,6.85,0,0,0-2.79,1.26,7.08,7.08,0,0,0,3,.64c1.33-.14,2.33-0.93,2.29-1.21a0.27,0.27,0,0,0-.09-0.14A2.94,2.94,0,0,0,22.79,45.64Zm-3.92.82a0.27,0.27,0,0,0,0-.16A2.93,2.93,0,0,0,18.72,44a6.76,6.76,0,0,0-2.07-2.22,5.87,5.87,0,0,0,.19,2.9,3.64,3.64,0,0,0,.24.46L16.71,45a6.89,6.89,0,0,0-3.05.3,7,7,0,0,0,2.66,1.57C17.62,47.16,18.82,46.74,18.88,46.46ZM14,43a2.93,2.93,0,0,0,.64-2.25A6.7,6.7,0,0,0,13.36,38a5.88,5.88,0,0,0-.76,2.81,3.59,3.59,0,0,0,.08.51l-0.32-.22a6.89,6.89,0,0,0-3-.68,7,7,0,0,0,2,2.33c1.15,0.69,2.42.66,2.56,0.42A0.27,0.27,0,0,0,14,43Zm-3.65-4.59a0.27,0.27,0,0,0,.06-0.15,3,3,0,0,0,1.29-2,6.67,6.67,0,0,0-.36-3,5.92,5.92,0,0,0-1.57,2.46,3.59,3.59,0,0,0-.07.51c-0.07-.1-0.15-0.2-0.24-0.3a6.85,6.85,0,0,0-2.65-1.53A6.91,6.91,0,0,0,8,37.26C8.89,38.25,10.11,38.61,10.32,38.41ZM7.9,32.52A0.28,0.28,0,0,0,8,32.4,3,3,0,0,0,10,31.09a6.67,6.67,0,0,0,.83-2.91,6,6,0,0,0-2.4,1.67,3.6,3.6,0,0,0-.27.44c0-.12-0.06-0.24-0.1-0.37a6.76,6.76,0,0,0-1.86-2.42,6.88,6.88,0,0,0,0,3.06C6.63,31.82,7.62,32.61,7.9,32.52ZM7.8,26.44a0.28,0.28,0,0,0,.14-0.07,3,3,0,0,0,2.26-.68,6.72,6.72,0,0,0,1.67-2.54A6,6,0,0,0,9.07,24a3.66,3.66,0,0,0-.39.35,3.8,3.8,0,0,0,0-.38,6.71,6.71,0,0,0-1-2.85,6.9,6.9,0,0,0-.89,2.94C6.8,25.41,7.51,26.46,7.8,26.44ZM10.1,20.7a0.28,0.28,0,0,0,.15-0.06,3,3,0,0,0,2.33-.39,6.75,6.75,0,0,0,2-2.3,6,6,0,0,0-2.89.52,3.67,3.67,0,0,0-.43.29c0-.12,0-0.25.06-0.38a6.69,6.69,0,0,0-.66-3,6.92,6.92,0,0,0-1.26,2.8C9.25,19.55,9.81,20.68,10.1,20.7Zm3.6-5.49a0.28,0.28,0,0,0,.16,0,3,3,0,0,0,2.35.23,6.8,6.8,0,0,0,2.53-1.7,6.05,6.05,0,0,0-2.93-.24,3.71,3.71,0,0,0-.49.17c0.06-.11.11-0.23,0.16-0.35a6.68,6.68,0,0,0,.15-3,7,7,0,0,0-2,2.37C13.19,13.88,13.43,15.11,13.7,15.21Zm6.61-3.85a7.7,7.7,0,0,0,2.24-2.83A7.84,7.84,0,0,0,19,9.36c-1.32.83-1.93,2.21-1.74,2.51S19,12.2,20.31,11.37Z"/></g><g id="Forme_46" data-name="Forme 46"><path class="cls-3" d="M36.23,20a1.59,1.59,0,0,0-2.22.6L27.31,32.5,23,25a1.59,1.59,0,0,0-2.22-.58,1.72,1.72,0,0,0-.56,2.3l6,10.44a1.26,1.26,0,0,0,2.22,0l8.38-14.82A1.72,1.72,0,0,0,36.23,20Z"/></g></svg>